<svg preserveAspectRatio="none" width="100%" height="100%" overflow="visible" style="display: block;" viewBox="0 0 24.6877 24.6877" fill="none" xmlns="http://www.w3.org/2000/svg">
<path id="Vector" fill-rule="evenodd" clip-rule="evenodd" d="M5.29067 0C3.88785 -1.0344e-07 2.54245 0.557129 1.55032 1.54888C0.558184 2.54063 0.000538717 3.88581 0 5.28863V19.3971C0 20.8003 0.557408 22.146 1.5496 23.1381C2.54179 24.1303 3.88749 24.6877 5.29067 24.6877H19.3991C20.8019 24.6872 22.1471 24.1296 23.1389 23.1374C24.1306 22.1453 24.6877 20.7999 24.6877 19.3971V5.28863C24.6872 3.88617 24.1298 2.54129 23.1381 1.5496C22.1464 0.557905 20.8016 0.000538479 19.3991 0H5.29067ZM20.9209 5.29676C20.9209 5.7009 20.7603 6.08849 20.4746 6.37426C20.1888 6.66003 19.8012 6.82057 19.3971 6.82057C18.9929 6.82057 18.6054 6.66003 18.3196 6.37426C18.0338 6.08849 17.8733 5.7009 17.8733 5.29676C17.8733 4.89262 18.0338 4.50504 18.3196 4.21927C18.6054 3.9335 18.9929 3.77295 19.3971 3.77295C19.8012 3.77295 20.1888 3.9335 20.4746 4.21927C20.7603 4.50504 20.9209 4.89262 20.9209 5.29676ZM12.3469 8.11683C11.2261 8.11683 10.1512 8.56207 9.35867 9.3546C8.56613 10.1471 8.12089 11.222 8.12089 12.3429C8.12089 13.4637 8.56613 14.5386 9.35867 15.3311C10.1512 16.1236 11.2261 16.5689 12.3469 16.5689C13.4677 16.5689 14.5426 16.1236 15.3352 15.3311C16.1277 14.5386 16.573 13.4637 16.573 12.3429C16.573 11.222 16.1277 10.1471 15.3352 9.3546C14.5426 8.56207 13.4677 8.11683 12.3469 8.11683ZM6.08711 12.3429C6.08711 10.6832 6.74641 9.0915 7.91997 7.91794C9.09353 6.74438 10.6852 6.08508 12.3449 6.08508C14.0046 6.08508 15.5962 6.74438 16.7698 7.91794C17.9434 9.0915 18.6027 10.6832 18.6027 12.3429C18.6027 14.0025 17.9434 15.5942 16.7698 16.7678C15.5962 17.9413 14.0046 18.6006 12.3449 18.6006C10.6852 18.6006 9.09353 17.9413 7.91997 16.7678C6.74641 15.5942 6.08711 14.0025 6.08711 12.3429Z" fill="var(--fill-0, white)"/>
</svg>
