<svg preserveAspectRatio="none" width="100%" height="100%" overflow="visible" style="display: block;" viewBox="0 0 32 32" fill="none" xmlns="http://www.w3.org/2000/svg">
<g id="medal-star">
<path id="Vector" d="M16 22.3333C15.4667 22.3333 14.9333 22.2933 14.4267 22.2C11.6 21.7867 9.02667 20.16 7.4 17.7467C6.26667 16.04 5.66667 14.0533 5.66667 12C5.66667 6.30667 10.3067 1.66667 16 1.66667C21.6933 1.66667 26.3333 6.30667 26.3333 12C26.3333 14.0533 25.7333 16.04 24.6 17.7467C22.96 20.1733 20.3867 21.7867 17.5333 22.2133C17.0667 22.2933 16.5333 22.3333 16 22.3333ZM16 3.66667C11.4 3.66667 7.66667 7.4 7.66667 12C7.66667 13.6667 8.14667 15.2667 9.05333 16.6267C10.3733 18.5733 12.44 19.88 14.7333 20.2133C15.5867 20.36 16.4267 20.36 17.2133 20.2133C19.5467 19.88 21.6133 18.56 22.9333 16.6133C23.84 15.2533 24.32 13.6533 24.32 11.9867C24.3333 7.39999 20.6 3.66667 16 3.66667Z" fill="var(--fill-0, #FA266D)"/>
<path id="Vector_2" d="M8.62642 30.12C8.43976 30.12 8.26642 30.0933 8.07976 30.0533C7.21309 29.8533 6.54642 29.1866 6.34642 28.3199L5.87976 26.3599C5.85309 26.2399 5.75976 26.1466 5.62642 26.1066L3.42642 25.5866C2.59976 25.3866 1.94642 24.7733 1.71976 23.96C1.49309 23.1466 1.71976 22.2666 2.31976 21.6666L7.51976 16.4666C7.73309 16.2533 8.02642 16.1466 8.31976 16.1733C8.61309 16.2 8.87976 16.3599 9.05309 16.6133C10.3731 18.5599 12.4398 19.88 14.7464 20.2133C15.5998 20.36 16.4398 20.36 17.2264 20.2133C19.5598 19.88 21.6264 18.5599 22.9464 16.6133C23.1064 16.3599 23.3864 16.2 23.6798 16.1733C23.9731 16.1466 24.2664 16.2533 24.4798 16.4666L29.6798 21.6666C30.2798 22.2666 30.5064 23.1466 30.2798 23.96C30.0531 24.7733 29.3864 25.4 28.5731 25.5866L26.3731 26.1066C26.2531 26.1333 26.1598 26.2266 26.1198 26.3599L25.6531 28.3199C25.4531 29.1866 24.7864 29.8533 23.9198 30.0533C23.0531 30.2666 22.1598 29.9599 21.5998 29.2799L15.9998 22.84L10.3998 29.2933C9.94642 29.8266 9.30642 30.12 8.62642 30.12ZM8.11976 18.7066L3.73309 23.0933C3.61309 23.2133 3.62642 23.3466 3.65309 23.4266C3.66642 23.4933 3.73309 23.6266 3.89309 23.6533L6.09309 24.1733C6.95976 24.3733 7.62642 25.0399 7.82642 25.9066L8.29309 27.8666C8.33309 28.04 8.46642 28.0933 8.54642 28.12C8.62642 28.1333 8.75976 28.1466 8.87976 28.0133L13.9864 22.1333C11.7198 21.6933 9.63976 20.48 8.11976 18.7066ZM18.0131 22.12L23.1198 27.9866C23.2398 28.1333 23.3864 28.1333 23.4664 28.1066C23.5464 28.0933 23.6664 28.0266 23.7198 27.8533L24.1864 25.8933C24.3864 25.0266 25.0531 24.36 25.9198 24.16L28.1198 23.64C28.2798 23.6 28.3464 23.48 28.3598 23.4133C28.3864 23.3466 28.3998 23.2 28.2798 23.08L23.8931 18.6933C22.3598 20.4666 20.2931 21.68 18.0131 22.12Z" fill="var(--fill-0, #FA266D)"/>
<path id="Vector_3" d="M18.5202 17.1867C18.1735 17.1867 17.7602 17.0933 17.2669 16.8L16.0002 16.04L14.7335 16.7867C13.5735 17.48 12.8135 17.08 12.5335 16.88C12.2535 16.68 11.6535 16.08 11.9602 14.76L12.2802 13.3867L11.2135 12.4C10.6269 11.8133 10.4135 11.1067 10.6135 10.4667C10.8135 9.82667 11.4002 9.37332 12.2269 9.23999L13.6535 9L14.3335 7.50667C14.7202 6.74667 15.3202 6.31999 16.0002 6.31999C16.6802 6.31999 17.2935 6.76002 17.6669 7.52002L18.4535 9.09334L19.7735 9.25334C20.5869 9.38667 21.1735 9.83998 21.3869 10.48C21.5869 11.12 21.3735 11.8267 20.7869 12.4133L19.6802 13.52L20.0269 14.76C20.3335 16.08 19.7335 16.68 19.4535 16.88C19.3069 17 18.9869 17.1867 18.5202 17.1867ZM12.8135 11.1867L13.7335 12.1066C14.1602 12.5333 14.3735 13.2533 14.2402 13.84L13.9869 14.9067L15.0535 14.28C15.6269 13.9467 16.4002 13.9467 16.9602 14.28L18.0269 14.9067L17.7869 13.84C17.6535 13.24 17.8535 12.5333 18.2802 12.1066L19.2002 11.1867L18.0402 10.9867C17.4802 10.8933 16.9202 10.48 16.6669 9.97335L16.0002 8.66667L15.3335 10C15.0935 10.4933 14.5335 10.92 13.9735 11.0133L12.8135 11.1867Z" fill="var(--fill-0, #FA266D)"/>
<g id="Vector_4" opacity="0">
</g>
</g>
</svg>
